<svg data-v-423bf9ae="" xmlns="http://www.w3.org/2000/svg" viewBox="0 0 192.2678362508857 163" class="iconAbove"><!----><!----><!----><g data-v-423bf9ae="" id="cf6e8327-a65e-4387-9cbe-29b74c17a1a2" fill="black" transform="matrix(4.319654617459175,0,0,4.319654617459175,-3.066956969569688,89.99783749687612)"><path d="M3.92 13.71L3.92 13.71Q3.05 13.71 2.16 13.52L2.16 13.52L2.16 13.52Q1.26 13.33 0.71 13.08L0.71 13.08L0.90 11.66L0.90 11.66Q1.60 12.00 2.48 12.25L2.48 12.25L2.48 12.25Q3.36 12.50 4.23 12.50L4.23 12.50L4.23 12.50Q5.21 12.50 5.75 12.14L5.75 12.14L5.75 12.14Q6.29 11.79 6.29 11.07L6.29 11.07L6.29 11.07Q6.29 10.54 6.01 10.18L6.01 10.18L6.01 10.18Q5.74 9.83 5.21 9.58L5.21 9.58L5.21 9.58Q4.69 9.34 3.75 9.06L3.75 9.06L3.75 9.06Q2.80 8.78 2.17 8.46L2.17 8.46L2.17 8.46Q1.54 8.13 1.16 7.57L1.16 7.57L1.16 7.57Q0.77 7.01 0.77 6.16L0.77 6.16L0.77 6.16Q0.77 4.97 1.69 4.24L1.69 4.24L1.69 4.24Q2.60 3.51 4.27 3.51L4.27 3.51L4.27 3.51Q5.17 3.51 5.97 3.71L5.97 3.71L5.97 3.71Q6.78 3.91 7.38 4.19L7.38 4.19L7.24 5.60L7.24 5.60Q6.45 5.14 5.73 4.93L5.73 4.93L5.73 4.93Q5.00 4.72 4.21 4.72L4.21 4.72L4.21 4.72Q3.30 4.72 2.77 5.05L2.77 5.05L2.77 5.05Q2.23 5.39 2.23 6.09L2.23 6.09L2.23 6.09Q2.23 6.57 2.47 6.87L2.47 6.87L2.47 6.87Q2.72 7.18 3.18 7.40L3.18 7.40L3.18 7.40Q3.64 7.62 4.47 7.87L4.47 7.87L4.47 7.87Q6.12 8.37 6.93 9.06L6.93 9.06L6.93 9.06Q7.74 9.76 7.74 10.98L7.74 10.98L7.74 10.98Q7.74 12.26 6.78 12.98L6.78 12.98L6.78 12.98Q5.81 13.71 3.92 13.71L3.92 13.71ZM10.40 13.51L8.34 6.65L9.83 6.65L11.14 12.12L12.60 6.86L13.90 6.86L15.37 12.12L16.69 6.65L18.17 6.65L16.10 13.51L14.69 13.51L13.26 8.44L11.82 13.51L10.40 13.51ZM19.18 5.11L19.18 3.71L20.44 3.71L20.44 5.11L19.18 5.11ZM19.18 13.51L19.18 6.65L20.44 6.65L20.44 13.51L19.18 13.51ZM22.62 13.51L22.62 7.63L21.43 7.63L21.60 6.65L22.62 6.65L22.62 5.03L22.62 5.03Q22.62 4.09 23.12 3.55L23.12 3.55L23.12 3.55Q23.62 3.01 24.56 3.01L24.56 3.01L24.56 3.01Q25.17 3.01 25.65 3.19L25.65 3.19L25.45 4.26L25.45 4.26Q25.12 4.13 24.75 4.13L24.75 4.13L24.75 4.13Q23.88 4.13 23.88 5.11L23.88 5.11L23.88 6.65L25.73 6.65L25.73 7.63L23.88 7.63L23.88 13.51L22.62 13.51ZM29.15 13.65L29.15 13.65Q28.24 13.65 27.80 13.17L27.80 13.17L27.80 13.17Q27.36 12.70 27.36 12.01L27.36 12.01L27.36 7.63L26.18 7.63L26.29 6.65L27.36 6.65L27.36 4.96L28.62 4.83L28.62 6.65L30.42 6.65L30.42 7.63L28.62 7.63L28.62 11.24L28.62 11.24Q28.62 11.96 28.70 12.22L28.70 12.22L28.70 12.22Q28.78 12.49 29.06 12.56L29.06 12.56L29.06 12.56Q29.33 12.64 30.06 12.64L30.06 12.64L30.38 12.64L30.28 13.65L29.15 13.65ZM31.50 5.11L31.50 3.71L32.76 3.71L32.76 5.11L31.50 5.11ZM31.50 13.51L31.50 6.65L32.76 6.65L32.76 13.51L31.50 13.51ZM34.94 13.51L34.94 7.63L33.75 7.63L33.92 6.65L34.94 6.65L34.94 5.03L34.94 5.03Q34.94 4.09 35.44 3.55L35.44 3.55L35.44 3.55Q35.94 3.01 36.88 3.01L36.88 3.01L36.88 3.01Q37.49 3.01 37.97 3.19L37.97 3.19L37.77 4.26L37.77 4.26Q37.44 4.13 37.07 4.13L37.07 4.13L37.07 4.13Q36.20 4.13 36.20 5.11L36.20 5.11L36.20 6.65L38.05 6.65L38.05 7.63L36.20 7.63L36.20 13.51L34.94 13.51ZM39.62 16.90L41.20 13.20L38.35 6.65L39.75 6.65L41.89 11.75L43.82 6.65L45.22 6.65L41.02 16.90L39.62 16.90Z"></path></g><!----><g data-v-423bf9ae="" id="7c510aa3-9f7b-4e77-9b9d-a9522eb5e51a" transform="matrix(2.994410458179972,0,0,2.994410458179972,49.08943266912045,-1.9385669710569857)" stroke="none" fill="black"><path d="M17.572 23.933l4.106 7.095L32 13.189h-8.981V7.582L11.51.972 0 7.582v13.222l11.51 6.611 6.062-3.482zm10.96-8.744l-6.855 11.846-6.855-11.846h13.71z"></path></g><!----></svg>